<?xml version="1.0" encoding="UTF-8" standalone="no"?>
<!-- Created with Inkscape (http://www.inkscape.org/) -->

<svg
   xmlns:dc="http://purl.org/dc/elements/1.1/"
   xmlns:cc="http://creativecommons.org/ns#"
   xmlns:rdf="http://www.w3.org/1999/02/22-rdf-syntax-ns#"
   xmlns:svg="http://www.w3.org/2000/svg"
   xmlns="http://www.w3.org/2000/svg"
   xmlns:sodipodi="http://sodipodi.sourceforge.net/DTD/sodipodi-0.dtd"
   xmlns:inkscape="http://www.inkscape.org/namespaces/inkscape"
   version="1.1"
   id="svg1367"
   width="230.39999"
   height="230.39999"
   viewBox="0 0 230.39999 230.39999"
   sodipodi:docname="Glas-Automatik-Neu.svg"
   inkscape:version="0.92.3 (2405546, 2018-03-11)">
  <metadata
     id="metadata1373">
    <rdf:RDF>
      <cc:Work
         rdf:about="">
        <dc:format>image/svg+xml</dc:format>
        <dc:type
           rdf:resource="http://purl.org/dc/dcmitype/StillImage" />
        <dc:title></dc:title>
      </cc:Work>
    </rdf:RDF>
  </metadata>
  <defs
     id="defs1371" />
  <sodipodi:namedview
     pagecolor="#ffffff"
     bordercolor="#666666"
     borderopacity="1"
     objecttolerance="10"
     gridtolerance="10"
     guidetolerance="10"
     inkscape:pageopacity="0"
     inkscape:pageshadow="2"
     inkscape:window-width="1680"
     inkscape:window-height="988"
     id="namedview1369"
     showgrid="false"
     inkscape:zoom="2.8284271"
     inkscape:cx="63.84697"
     inkscape:cy="111.64265"
     inkscape:window-x="-8"
     inkscape:window-y="-8"
     inkscape:window-maximized="1"
     inkscape:current-layer="svg1367"
     showguides="true"
     inkscape:guide-bbox="true" />
  <path
     style="fill:#000000;stroke-width:0.95999998"
     d="M 75.679989,123.48 V 37.560012 h 34.079991 34.08 l -0.39062,1.92 -0.39063,1.82625 -31.37875,0.09375 H 79.519989 V 123.48 205.56 h 39.839991 39.84 V 123.48 41.306008 h -3.94271 -3.39028 l 0.61585,-1.28088 0.49432,-1.010284 0.40879,-0.821327 0.29835,-0.633509 4.5557,-1e-6 H 164 v 85.919983 85.92 H 119.84 75.680009 Z m 7.326958,42.70984 -0.764761,-0.72862 -0.630322,-0.64877 -0.508368,-0.51742 28.902394,-29.06103 28.5659,-28.55399 0.5669,0.625 0.85286,0.93249 0.83296,0.97536 1.30641,1.56411 -28.17936,28.19152 -28.179367,28.19151 -0.778602,0.77576 -1.125981,-0.94946 z m -20.208744,-10.1926 c 0,0 -0.727813,-2.94916 -0.971955,-4.44657 -0.464672,-2.85 -0.725572,-5.7323 -0.934126,-8.61239 -0.141107,-1.94865 -0.247589,-3.90388 -0.214075,-5.85734 0.03622,-2.11109 0.243124,-4.21691 0.448345,-6.31831 0.196959,-2.0168 0.440034,-4.03022 0.751041,-6.03261 0.175888,-1.13244 0.6301,-3.37981 0.6301,-3.37981 0,0 0.37133,-0.72734 1.225984,-0.65515 0.986916,0.0834 0.935513,0.88806 0.935513,0.88806 0,0 -0.316588,1.55506 -0.452115,2.33677 -0.200032,1.15376 -0.532665,3.47229 -0.532665,3.47229 0,0 -0.385737,2.71799 -0.532206,4.0825 -0.166311,1.54936 -0.354281,3.10044 -0.393306,4.65821 -0.05033,2.00916 0.07288,4.02047 0.205806,6.02586 0.117937,1.77932 0.310944,3.5535 0.524653,5.32387 0.20097,1.66484 0.433569,3.32649 0.712153,4.98011 0.177511,1.05367 0.610959,3.1468 0.610959,3.1468 0,0 -0.08873,0.59579 -0.944494,0.78742 -0.814312,0.18234 -1.069612,-0.39971 -1.069612,-0.39971 z m 47.633777,-5.34924 -1.152,-1.152 -1.0625,-1.12161 1.0625,-1.05912 22.54302,-21.82771 22.54303,-21.82771 0.90946,0.99042 0.82107,0.93518 0.77892,0.86675 0.88389,0.9662 -21.84689,22.06927 -22.3275,22.31233 -1.02394,0.92187 -0.97706,-0.92187 z m -54.84804,-5.073 c -0.109384,-0.88846 -0.208961,-1.77862 -0.27638,-2.67125 -0.102135,-1.35227 -0.19945,-2.70764 -0.19388,-4.06375 0.0076,-1.85873 0.131975,-3.71748 0.311482,-5.56754 0.138482,-1.42725 0.329968,-2.85102 0.589904,-4.26121 0.13465,-0.7305 0.501516,-2.17125 0.501516,-2.17125 0,0 0.107879,-0.37012 0.740773,-0.31966 0.691469,0.0551 0.658741,0.44595 0.658741,0.44595 0,0 -1.167696,7.23651 -1.2019,10.88759 -0.04,4.26964 1.166744,12.75623 1.166744,12.75623 0,0 0.03042,0.46783 -0.658742,0.53096 -0.550029,0.0504 -0.705616,-0.30107 -0.705616,-0.30107 0,0 -0.338426,-1.31635 -0.46388,-1.98375 -0.20411,-1.08584 -0.333756,-2.18467 -0.468762,-3.28125 z M 44.265641,143.30208 38.291292,139.8 l -1.6819,-1.05264 1.6306,-0.99014 6.366523,-3.53861 6.366522,-3.53861 1.666956,-0.98437 -2e-6,0.98437 v 8.16 8.16 l 2e-6,1.2445 -2.400001,-1.4403 z m -5.338715,-40.70207 c 0.267475,-1.67746 0.582739,-3.349906 0.753065,-5.04 0.278344,-2.761926 0.433284,-5.540337 0.4375,-8.31625 0.0038,-2.525176 -0.126871,-5.053291 -0.375,-7.56625 -0.16755,-1.696884 -0.451495,-3.381351 -0.750877,-5.059999 -0.264448,-1.482771 -0.922752,-4.423281 -0.922752,-4.423281 0,0 -0.07993,-0.498307 0.69173,-0.667969 0.781538,-0.171834 1.101102,0.319087 1.101102,0.319087 0,0 0.992644,3.370214 1.352079,5.087808 0.411879,1.968202 0.725,3.960677 0.91839,5.962193 0.181603,1.87952 0.221116,3.772062 0.225465,5.660331 0.0047,2.050088 -0.06246,4.10217 -0.216476,6.14647 -0.13912,1.846624 -0.343342,3.690574 -0.638507,5.51875 -0.410394,2.54189 -1.572111,7.56274 -1.572111,7.56274 0,0 -0.222135,0.46058 -0.94739,0.46404 -0.892121,0.004 -0.908721,-0.61867 -0.908721,-0.61867 0,0 0.584779,-3.34993 0.852503,-5.02895 z m 5.751603,-0.49957 c 0,0 0.30037,-2.303016 0.436947,-3.456196 0.16712,-1.411066 0.353684,-2.820692 0.468025,-4.237012 0.135375,-1.67686 0.256485,-3.358045 0.257778,-5.04036 0.0011,-1.412559 -0.07964,-2.825938 -0.209937,-4.232474 C 45.508695,83.81049 45.296133,82.496145 45.09374,81.182063 44.941241,80.19193 44.583959,78.22019 44.583959,78.22019 c 0,0 -0.0266,-0.477835 0.771468,-0.637654 0.783969,-0.156997 1.025719,0.463503 1.025719,0.463503 0,0 0.609386,3.189714 0.790235,4.801697 0.266058,2.371484 0.44464,4.759732 0.431678,7.146059 -0.01338,2.464144 -0.243008,4.925922 -0.525888,7.373812 -0.195269,1.689749 -0.807472,5.038693 -0.807472,5.038693 0,0 -0.229318,0.47476 -0.979805,0.34417 -0.585731,-0.10193 -0.611365,-0.65003 -0.611365,-0.65003 z M 50.71999,89.88001 v -8.16 l 3e-6,-1.016466 1.718396,1.016466 6.331913,3.6 6.331914,3.6 1.480505,0.965524 -1.480505,0.954476 -6.331914,3.6 -6.331913,3.6 -1.718396,0.898434 -3e-6,-0.898434 z m 90.8978,-41.312568 -1.61781,-3.39257 -0.46956,-0.894896 0.46956,3.6e-5 h 2.4 2.4 l -0.38002,-0.01253 0.40122,-2.3875 0.59505,-3.6 0.59504,-3.6 h -3.48561 -3.48561 l -0.54138,-4e-6 0.54138,-2.072869 2.16,-7.11458 2.16,-7.11458 4.56,-0.008 h 4.56001 l 0.86185,-2.4e-5 -0.86185,1.668241 -2.48207,4.440915 -2.48208,4.440915 h 3.92208 3.92207 l 0.9115,-1.8e-5 -0.9115,1.967953 -3.37206,6.696035 -3.37207,6.696034 h 1.45207 1.45206 l 1.44141,8e-6 -1.44141,1.543351 -3.1657,3.06832 -3.1657,3.068321 -1.34662,1.242961 L 143.23567,51.96 Z M 75.679989,27.480013 c 0.02157,-3.036898 0.129436,-9.110005 0.129436,-9.110005 h 22.683018 21.776967 l 6.76909,8.108175 5.7336,7.158168 1.41699,2.003657 -0.7491,4e-6 H 104.55998 75.679989 c 0,0 -0.01932,-5.440068 0,-8.159999 z"
     id="path1920"
     inkscape:connector-curvature="0"
     sodipodi:nodetypes="cccccccccccccccccccccccccccccccccccccccccccaaaaacscacaaaaacsccccccccccccccccaaaaacscacscaaccccccccccccccaaaacscaaaaacscaccaaaaascaaaascccccccccccccccacccccccccccccccccccccccccccccccccccasccccccccas" />
</svg>
