<?xml version="1.0" encoding="UTF-8" standalone="no"?>
<svg
   xmlns:dc="http://purl.org/dc/elements/1.1/"
   xmlns:cc="http://creativecommons.org/ns#"
   xmlns:rdf="http://www.w3.org/1999/02/22-rdf-syntax-ns#"
   xmlns:svg="http://www.w3.org/2000/svg"
   xmlns="http://www.w3.org/2000/svg"
   viewBox="0 0 230.39999 230.39999"
   height="230.39999"
   width="230.39999"
   id="svg815"
   version="1.1">
  <metadata
     id="metadata821">
    <rdf:RDF>
      <cc:Work
         rdf:about="">
        <dc:format>image/svg+xml</dc:format>
        <dc:type
           rdf:resource="http://purl.org/dc/dcmitype/StillImage" />
        <dc:title></dc:title>
      </cc:Work>
    </rdf:RDF>
  </metadata>
  <defs
     id="defs819" />
  <path
     id="path825"
     d="M 74,122.03999 V 34.680002 h 68.63999 68.64 v 15.36 15.359999 h -22.56 -22.56 v 71.999989 72 H 120.08 74 Z m 87.35999,13.44 V 65.400001 h -13.92 -13.92 l -1.76562,0.01236 1.76562,-1.690762 4.52014,-4.2008 4.52014,-4.200802 8.67986,-8.386855 8.67986,-8.386855 -41.03999,-0.01315 -41.04,-0.01314 v 83.519993 83.52 h 41.76 41.75999 z M 82.179641,166.22589 81.427106,165.53728 80.72,164.914 l -0.679485,-0.61225 29.480155,-29.30243 29.17202,-29.08241 1.30798,1.35132 1.0991,1.16305 0.95534,1.05579 0.7454,0.88404 -29.35066,28.70888 -28.734212,28.08 -0.654188,0.64236 -0.94145,-0.79396 z m 27.532359,-15.5779 -1.152,-1.152 -1.10485,-1.13455 1.10485,-1.04618 22.54301,-21.82771 23.15841,-22.41672 1.32159,1.20378 1.04028,0.96642 0.90451,0.82648 c 0,0 0.17587,0.16618 0.53724,0.57544 l -22.87255,22.8447 -22.3275,22.31234 -1.05574,0.92808 -0.94525,-0.92808 z M 74,22.200003 v -2.88 h 46.08 46.07999 v 2.88 2.88 H 120.08 74 Z"
     style="fill:#000000;stroke-width:0.95999998" />
  <path
     d="m 86.0545,44.108888 a 1.75,1.75 0 0 1 -1.879558,1.605892 1.75,1.75 0 0 1 -1.609991,-1.876049 1.75,1.75 0 0 1 1.872531,-1.614082 1.75,1.75 0 0 1 1.618164,1.869004"
     id="path816"
     style="fill:#000000;stroke-width:0.84423155" />
  <path
     d="m 92.5545,44.108888 a 1.75,1.75 0 0 1 -1.879558,1.605892 1.75,1.75 0 0 1 -1.609991,-1.876049 1.75,1.75 0 0 1 1.872531,-1.614082 1.75,1.75 0 0 1 1.618164,1.869004"
     id="path818"
     style="fill:#000000;stroke-width:1.17466605" />
  <path
     d="m 105.5545,44.108888 a 1.75,1.75 0 0 1 -1.87956,1.605892 1.75,1.75 0 0 1 -1.60999,-1.876049 1.75,1.75 0 0 1 1.87253,-1.614082 1.75,1.75 0 0 1 1.61817,1.869004"
     id="path820"
     style="fill:#000000;stroke-width:1.11268032" />
  <path
     d="m 144.55449,44.108888 a 1.75,1.75 0 0 1 -1.87956,1.605892 1.75,1.75 0 0 1 -1.60999,-1.876049 1.75,1.75 0 0 1 1.87253,-1.614082 1.75,1.75 0 0 1 1.61817,1.869004"
     id="path822"
     style="fill:#000000;stroke-width:0.8501609" />
  <path
     d="m 112.0545,44.108888 a 1.75,1.75 0 0 1 -1.87956,1.605892 1.75,1.75 0 0 1 -1.60999,-1.876049 1.75,1.75 0 0 1 1.87253,-1.614082 1.75,1.75 0 0 1 1.61817,1.869004"
     id="path824"
     style="fill:#000000;stroke-width:0.73626083" />
  <path
     d="m 118.55451,44.108888 a 1.75,1.75 0 0 1 -1.87956,1.605892 1.75,1.75 0 0 1 -1.60999,-1.876049 1.75,1.75 0 0 1 1.87253,-1.614082 1.75,1.75 0 0 1 1.61816,1.869004"
     id="path826"
     style="fill:#000000;stroke-width:0.84195924" />
  <path
     d="m 125.05451,44.108888 a 1.75,1.75 0 0 1 -1.87956,1.605892 1.75,1.75 0 0 1 -1.60999,-1.876049 1.75,1.75 0 0 1 1.87253,-1.614082 1.75,1.75 0 0 1 1.61816,1.869004"
     id="path828"
     style="fill:#000000;stroke-width:0.79709971" />
  <path
     d="m 99.0545,44.108888 a 1.75,1.75 0 0 1 -1.879558,1.605892 1.75,1.75 0 0 1 -1.609991,-1.876049 1.75,1.75 0 0 1 1.872531,-1.614082 1.75,1.75 0 0 1 1.618164,1.869004"
     id="path830"
     style="fill:#000000;stroke-width:1.07231832" />
  <path
     d="m 131.55451,44.108888 a 1.75,1.75 0 0 1 -1.87956,1.605892 1.75,1.75 0 0 1 -1.60999,-1.876049 1.75,1.75 0 0 1 1.87253,-1.614082 1.75,1.75 0 0 1 1.61816,1.869004"
     id="path832"
     style="fill:#000000;stroke-width:0.90173161" />
  <path
     d="m 138.05451,44.108888 a 1.75,1.75 0 0 1 -1.87956,1.605892 1.75,1.75 0 0 1 -1.60999,-1.876049 1.75,1.75 0 0 1 1.87253,-1.614082 1.75,1.75 0 0 1 1.61816,1.869004"
     id="path834"
     style="fill:#000000;stroke-width:1.04123008" />
  <path
     d="m 151.05449,44.108888 a 1.75,1.75 0 0 1 -1.87956,1.605892 1.75,1.75 0 0 1 -1.60999,-1.876049 1.75,1.75 0 0 1 1.87253,-1.614082 1.75,1.75 0 0 1 1.61817,1.869004"
     id="path836"
     style="fill:#000000;stroke-width:1.19474709" />
  <path
     d="m 86.0545,51.108884 a 1.75,1.75 0 0 1 -1.879558,1.605892 1.75,1.75 0 0 1 -1.609991,-1.876049 1.75,1.75 0 0 1 1.872531,-1.614082 1.75,1.75 0 0 1 1.618164,1.869004"
     id="path838"
     style="fill:#000000;stroke-width:1.08894432" />
  <path
     d="m 92.5545,51.108884 a 1.75,1.75 0 0 1 -1.879558,1.605892 1.75,1.75 0 0 1 -1.609991,-1.876049 1.75,1.75 0 0 1 1.872531,-1.614082 1.75,1.75 0 0 1 1.618164,1.869004"
     id="path840"
     style="fill:#000000;stroke-width:1.12051439" />
  <path
     d="m 99.0545,51.108884 a 1.75,1.75 0 0 1 -1.879558,1.605892 1.75,1.75 0 0 1 -1.609991,-1.876049 1.75,1.75 0 0 1 1.872531,-1.614082 1.75,1.75 0 0 1 1.618164,1.869004"
     id="path842"
     style="fill:#000000;stroke-width:1.02825475" />
  <path
     d="m 105.5545,51.108884 a 1.75,1.75 0 0 1 -1.87956,1.605892 1.75,1.75 0 0 1 -1.60999,-1.876049 1.75,1.75 0 0 1 1.87253,-1.614082 1.75,1.75 0 0 1 1.61817,1.869004"
     id="path844"
     style="fill:#000000;stroke-width:1.0437181" />
  <path
     d="m 112.0545,51.108884 a 1.75,1.75 0 0 1 -1.87956,1.605892 1.75,1.75 0 0 1 -1.60999,-1.876049 1.75,1.75 0 0 1 1.87253,-1.614082 1.75,1.75 0 0 1 1.61817,1.869004"
     id="path846"
     style="fill:#000000;stroke-width:1.0126977" />
  <path
     d="m 118.55451,51.108884 a 1.75,1.75 0 0 1 -1.87956,1.605892 1.75,1.75 0 0 1 -1.60999,-1.876049 1.75,1.75 0 0 1 1.87253,-1.614082 1.75,1.75 0 0 1 1.61816,1.869004"
     id="path848"
     style="fill:#000000;stroke-width:1.0437181" />
  <path
     d="m 125.05451,51.108884 a 1.75,1.75 0 0 1 -1.87956,1.605892 1.75,1.75 0 0 1 -1.60999,-1.876049 1.75,1.75 0 0 1 1.87253,-1.614082 1.75,1.75 0 0 1 1.61816,1.869004"
     id="path850"
     style="fill:#000000;stroke-width:0.99928385" />
  <path
     d="m 131.55451,51.108884 a 1.75,1.75 0 0 1 -1.87956,1.605892 1.75,1.75 0 0 1 -1.60999,-1.876049 1.75,1.75 0 0 1 1.87253,-1.614082 1.75,1.75 0 0 1 1.61816,1.869004"
     id="path852"
     style="fill:#000000;stroke-width:1.00221872" />
  <path
     d="m 138.05451,51.108884 a 1.75,1.75 0 0 1 -1.87956,1.605892 1.75,1.75 0 0 1 -1.60999,-1.876049 1.75,1.75 0 0 1 1.87253,-1.614082 1.75,1.75 0 0 1 1.61816,1.869004"
     id="path854"
     style="fill:#000000;stroke-width:1.0875293" />
  <path
     d="m 144.55449,51.108884 a 1.75,1.75 0 0 1 -1.87956,1.605892 1.75,1.75 0 0 1 -1.60999,-1.876049 1.75,1.75 0 0 1 1.87253,-1.614082 1.75,1.75 0 0 1 1.61817,1.869004"
     id="path856"
     style="fill:#000000;stroke-width:1.17704618" />
  <path
     d="m 86.0545,58.108884 a 1.75,1.75 0 0 1 -1.879558,1.605892 1.75,1.75 0 0 1 -1.609991,-1.876049 1.75,1.75 0 0 1 1.872531,-1.614082 1.75,1.75 0 0 1 1.618164,1.869004"
     id="path858"
     style="fill:#000000;stroke-width:1.13736534" />
  <path
     d="m 92.5545,58.108884 a 1.75,1.75 0 0 1 -1.879558,1.605892 1.75,1.75 0 0 1 -1.609991,-1.876049 1.75,1.75 0 0 1 1.872531,-1.614082 1.75,1.75 0 0 1 1.618164,1.869004"
     id="path860"
     style="fill:#000000;stroke-width:1.08894432" />
  <path
     d="m 99.0545,58.108884 a 1.75,1.75 0 0 1 -1.879558,1.605892 1.75,1.75 0 0 1 -1.609991,-1.876049 1.75,1.75 0 0 1 1.872531,-1.614082 1.75,1.75 0 0 1 1.618164,1.869004"
     id="path862"
     style="fill:#000000;stroke-width:1.08705878" />
  <path
     d="m 105.5545,58.108884 a 1.75,1.75 0 0 1 -1.87956,1.605892 1.75,1.75 0 0 1 -1.60999,-1.876049 1.75,1.75 0 0 1 1.87253,-1.614082 1.75,1.75 0 0 1 1.61817,1.869004"
     id="path864"
     style="fill:#000000;stroke-width:1.02706301" />
  <path
     d="m 112.0545,58.108884 a 1.75,1.75 0 0 1 -1.87956,1.605892 1.75,1.75 0 0 1 -1.60999,-1.876049 1.75,1.75 0 0 1 1.87253,-1.614082 1.75,1.75 0 0 1 1.61817,1.869004"
     id="path866"
     style="fill:#000000;stroke-width:1.05599999" />
  <path
     d="m 118.55451,58.108884 a 1.75,1.75 0 0 1 -1.87956,1.605892 1.75,1.75 0 0 1 -1.60999,-1.876049 1.75,1.75 0 0 1 1.87253,-1.614082 1.75,1.75 0 0 1 1.61816,1.869004"
     id="path868"
     style="fill:#000000;stroke-width:1.08705878" />
  <path
     d="m 125.05451,58.108884 a 1.75,1.75 0 0 1 -1.87956,1.605892 1.75,1.75 0 0 1 -1.60999,-1.876049 1.75,1.75 0 0 1 1.87253,-1.614082 1.75,1.75 0 0 1 1.61816,1.869004"
     id="path870"
     style="fill:#000000;stroke-width:0.96008104" />
  <path
     d="m 131.55451,58.108884 a 1.75,1.75 0 0 1 -1.87956,1.605892 1.75,1.75 0 0 1 -1.60999,-1.876049 1.75,1.75 0 0 1 1.87253,-1.614082 1.75,1.75 0 0 1 1.61816,1.869004"
     id="path872"
     style="fill:#000000;stroke-width:1.07412827" />
  <path
     d="m 138.05451,58.108884 a 1.75,1.75 0 0 1 -1.87956,1.605892 1.75,1.75 0 0 1 -1.60999,-1.876049 1.75,1.75 0 0 1 1.87253,-1.614082 1.75,1.75 0 0 1 1.61816,1.869004"
     id="path874"
     style="fill:#000000;stroke-width:1.23200011" />
</svg>
