<?xml version="1.0" encoding="UTF-8" standalone="no"?>
<!-- Created with Inkscape (http://www.inkscape.org/) -->

<svg
   xmlns:dc="http://purl.org/dc/elements/1.1/"
   xmlns:cc="http://creativecommons.org/ns#"
   xmlns:rdf="http://www.w3.org/1999/02/22-rdf-syntax-ns#"
   xmlns:svg="http://www.w3.org/2000/svg"
   xmlns="http://www.w3.org/2000/svg"
   xmlns:sodipodi="http://sodipodi.sourceforge.net/DTD/sodipodi-0.dtd"
   xmlns:inkscape="http://www.inkscape.org/namespaces/inkscape"
   version="1.1"
   id="svg1937"
   width="230.39999"
   height="230.39999"
   viewBox="0 0 230.39999 230.39999"
   sodipodi:docname="Holz-Automatik-Neu.svg"
   inkscape:version="0.92.3 (2405546, 2018-03-11)">
  <metadata
     id="metadata1943">
    <rdf:RDF>
      <cc:Work
         rdf:about="">
        <dc:format>image/svg+xml</dc:format>
        <dc:type
           rdf:resource="http://purl.org/dc/dcmitype/StillImage" />
        <dc:title></dc:title>
      </cc:Work>
    </rdf:RDF>
  </metadata>
  <defs
     id="defs1941" />
  <sodipodi:namedview
     pagecolor="#ffffff"
     bordercolor="#666666"
     borderopacity="1"
     objecttolerance="10"
     gridtolerance="10"
     guidetolerance="10"
     inkscape:pageopacity="0"
     inkscape:pageshadow="2"
     inkscape:window-width="1680"
     inkscape:window-height="988"
     id="namedview1939"
     showgrid="false"
     inkscape:zoom="2.8284271"
     inkscape:cx="84.542366"
     inkscape:cy="120.05798"
     inkscape:window-x="-8"
     inkscape:window-y="-8"
     inkscape:window-maximized="1"
     inkscape:current-layer="svg1937"
     showguides="true"
     inkscape:guide-bbox="true" />
  <path
     style="fill:#000000;stroke-width:0.95999998"
     d="M 75.680009,123.48003 V 37.560042 h 34.146761 34.14677 l -0.30677,2.16 -0.30677,2.16 -3.52966,0.01596 -4.09217,0.0065 4.13969,6.868862 3.57718,5.931361 6.94055,-5.931361 7.20617,-6.891326 h -3.03307 -2.90807 l 0.23438,-0.477969 0.5625,-1.10191 0.59833,-1.190391 0.77021,-1.502891 4.51667,-0.04687 H 164 V 123.48 209.39999 H 119.84 75.680009 Z m 21.334625,-4.49319 c 0.553651,-0.55074 0.978635,-1.24575 1.263439,-1.97289 0.411854,-1.05151 0.643889,-2.20662 0.59662,-3.33492 -0.03827,-0.9134 -0.236597,-1.86607 -0.70711,-2.6499 -0.56346,-0.93868 -1.405528,-1.78706 -2.40244,-2.23957 -1.144272,-0.5194 -2.509506,-0.58195 -3.75036,-0.38341 -1.04267,0.16683 -2.056729,0.64533 -2.893528,1.28935 -0.632229,0.48658 -1.152331,1.14651 -1.501401,1.86388 -0.299901,0.61633 -0.429138,1.31868 -0.464039,2.00321 -0.04486,0.87979 0.08646,1.77575 0.331456,2.62193 0.200296,0.69178 0.490885,1.37551 0.916192,1.9567 0.529498,0.72358 1.192466,1.38978 1.976861,1.82413 0.661409,0.36624 1.433426,0.55371 2.188249,0.59662 0.870731,0.0495 1.769299,-0.0918 2.586,-0.39775 0.68715,-0.25744 1.339823,-0.65989 1.860061,-1.17738 z m -33.883729,37.49454 c 0,0 -0.999356,-3.26771 -1.393676,-4.92895 -0.370449,-1.56068 -0.696555,-3.13544 -0.911378,-4.72503 -0.357033,-2.64188 -0.647261,-5.3075 -0.624117,-7.9733 0.02342,-2.69765 0.407702,-5.38329 0.771568,-8.0564 0.244749,-1.79801 0.636743,-3.5729 0.948345,-5.36054 0.251398,-1.44225 0.743266,-4.32864 0.743266,-4.32864 0,0 0.110496,-1.097 1.297819,-0.96879 1.190816,0.12858 1.015839,1.02779 1.015839,1.02779 0,0 -0.557359,2.22642 -0.793996,3.34905 -0.399182,1.89376 -0.764743,3.79598 -1.054953,5.70946 -0.327241,2.15766 -0.623191,4.32403 -0.772863,6.50123 -0.08667,1.26076 -0.111301,2.52741 -0.07184,3.79053 0.05499,1.76031 0.189933,3.52124 0.429648,5.26602 0.214277,1.55963 0.546238,3.10227 0.899653,4.63637 0.245706,1.06656 0.550272,2.11887 0.847876,3.17213 0.195049,0.6903 0.614481,2.06239 0.614481,2.06239 0,0 0.279946,0.82259 -0.548067,1.20594 -1.00388,0.46478 -1.397602,-0.37926 -1.397602,-0.37926 z m -7.296945,-8.28135 c 0,0 -0.395226,-2.62301 -0.505853,-3.94373 -0.150819,-1.80053 -0.220879,-3.60944 -0.214407,-5.41627 0.0061,-1.70018 0.0936,-3.40098 0.238258,-5.095 0.122518,-1.4348 0.298015,-2.86634 0.532766,-4.2871 0.145877,-0.88288 0.54349,-2.62895 0.54349,-2.62895 0,0 0.104986,-0.57033 0.850865,-0.5352 0.68337,0.0322 0.640943,0.54754 0.640943,0.54754 0,0 -1.007879,8.1956 -0.981694,12.3128 0.02438,3.83361 1.059819,11.45212 1.059819,11.45212 0,0 -0.107325,0.73116 -0.834523,0.76533 -0.624735,0.0293 -0.787647,-0.50029 -0.787647,-0.50029 0,0 -0.07269,-0.29056 -0.104505,-0.43688 -0.161235,-0.74161 -0.437512,-2.23437 -0.437512,-2.23437 z m -11.568299,-4.89792 -5.97435,-3.50208 -1.61664,-1.12083 1.56534,-0.92195 6.366523,-3.53861 6.366522,-3.53861 1.666957,-0.96875 -3e-6,0.96875 v 8.16 8.16 l 3e-6,1.00695 -2.400003,-1.20275 z m -5.151215,-40.70207 c 0.257171,-1.66423 0.507437,-3.331626 0.659315,-5.008746 0.24562,-2.712271 0.421529,-5.436677 0.40625,-8.160004 -0.01535,-2.735456 -0.200944,-5.472147 -0.5,-8.19125 -0.166542,-1.514248 -0.468413,-3.010601 -0.719627,-4.513124 -0.244428,-1.461935 -0.766339,-4.38015 -0.766339,-4.38015 0,0 0.02734,-0.810624 0.773599,-0.859537 0.748635,-0.04907 0.930011,0.632812 0.930011,0.632812 0,0 0.991732,3.823067 1.305875,5.769791 0.377903,2.341839 0.561824,4.714116 0.692057,7.082673 0.156168,2.840249 0.189811,5.689643 0.106287,8.532956 -0.05381,1.831702 -0.181217,3.663113 -0.391032,5.483553 -0.250872,2.176666 -0.537947,4.357366 -1.036255,6.491026 -0.15784,0.67584 -0.616412,1.98875 -0.616412,1.98875 0,0 -0.369398,0.51588 -0.998563,0.4495 -0.513544,-0.0542 -0.631884,-0.88812 -0.631884,-0.88812 0,0 0.557673,-2.94791 0.786718,-4.43013 z m 5.495198,-1.27434 c 0.221102,-1.27746 0.392999,-2.032026 0.529251,-3.057246 0.225423,-1.69619 0.370369,-3.403349 0.475876,-5.111192 0.08359,-1.353099 0.15093,-2.70972 0.124275,-4.065137 -0.03311,-1.683656 -0.114321,-3.372601 -0.352783,-5.039613 -0.290375,-2.029915 -0.818403,-4.136891 -1.308128,-6.011044 0,0 -0.06873,-0.686801 0.41803,-0.914978 0.883257,-0.414038 1.277251,0.274935 1.277251,0.274935 0,0 0.741709,2.441968 1.005958,3.688762 0.349164,1.64745 0.630527,3.315409 0.762315,4.994289 0.185758,2.366405 0.129339,4.749066 0.03707,7.120956 -0.07048,1.811752 -0.244961,3.619252 -0.45077,5.420652 -0.132227,1.15736 -0.340143,2.173916 -0.503378,3.458206 0,0 -0.519612,0.98108 -1.256805,0.91141 -0.685903,-0.0648 -0.836289,-1.04501 -0.836289,-1.04501 z M 50.72001,89.88004 v -8.16 l 3e-6,-0.882813 1.718395,0.882813 6.331914,3.6 6.331914,3.6 1.539062,0.99125 -1.539062,0.92875 -6.331914,3.6 -6.331914,3.600004 -1.718395,0.87283 -3e-6,-0.87283 z M 141.61781,48.567472 140,45.174902 l -0.46404,-0.894864 0.46404,4e-6 h 2.4 2.4 l -0.38003,-4.8e-5 0.40123,-2.399952 0.59505,-3.6 0.59504,-3.6 h -3.48561 -3.48561 l -0.62424,0.0021 0.62424,-2.074997 2.16,-7.11458 2.16,-7.11458 4.56,-0.009 4.56001,-0.0089 0.84134,0.01932 -0.84134,1.658849 -2.48207,4.440915 -2.48208,4.440915 h 3.92208 3.92207 l 0.86949,0.0077 -0.86949,1.960236 -3.37206,6.696035 -3.37207,6.696034 h 1.45207 1.45206 l 1.35897,-5.1e-5 -1.35897,1.54341 -3.1657,3.06832 -3.1657,3.068321 -1.34377,1.223152 -0.60922,-1.223152 z M 75.680009,27.480043 v -8.16 h 22.812454 22.812457 l 5.7336,7.15817 5.7336,7.158168 1.43225,1.993356 -0.76436,0.0103 H 104.56 75.680009 Z"
     id="path2490"
     inkscape:connector-curvature="0"
     sodipodi:nodetypes="cccccccccccccccccccccccccaaaaaaaaaaaaaaacaaaaacscaaaaaaacscccaaacscacscaccacccccccccccacaaacscaaaaacscaccaaacscaaaacscccccccccccccccccccccccccccccccccccccccccccccccccccccccccccccccc" />
</svg>
