<?xml version="1.0" encoding="UTF-8" standalone="no"?>
<svg
   xmlns:dc="http://purl.org/dc/elements/1.1/"
   xmlns:cc="http://creativecommons.org/ns#"
   xmlns:rdf="http://www.w3.org/1999/02/22-rdf-syntax-ns#"
   xmlns:svg="http://www.w3.org/2000/svg"
   xmlns="http://www.w3.org/2000/svg"
   viewBox="0 0 230.39999 230.39999"
   height="230.39999"
   width="230.39999"
   id="svg815"
   version="1.1">
  <metadata
     id="metadata821">
    <rdf:RDF>
      <cc:Work
         rdf:about="">
        <dc:format>image/svg+xml</dc:format>
        <dc:type
           rdf:resource="http://purl.org/dc/dcmitype/StillImage" />
        <dc:title></dc:title>
      </cc:Work>
    </rdf:RDF>
  </metadata>
  <defs
     id="defs819" />
  <path
     id="path825"
     d="M 94.80001,156.73999 V 112.58 h 4.8 4.8 v -0.96 -0.96 h 2.88 2.88 v -5.76 -5.759997 h -9.12 -9.12 V 112.1 125.05999 h -9.599999 -9.6 v -2.18001 -0.97999 l 8.540539,-8.30807 8.73946,-8.57193 4e-6,-3.45997 v -2.540019 l -5.445221,5.121009 -4.405904,4.37182 -4.112281,4.12765 -3.316592,3.25951 v -1.66001 -1.33999 l 8.838922,-8.86809 8.441077,-8.011899 -0.04722,-3.099983 -0.04721,-2.900017 -4.505367,4.287482 -3.734553,3.700464 -4.48526,4.450883 -4.460394,4.44116 v -1.30001 -1.69999 l 8.540539,-8.433489 8.73946,-8.4465 4e-6,-2.739983 v -3.260017 l -4.773868,4.597751 -4.306443,4.023709 -4.01282,3.530872 -4.186876,3.727668 7e-6,-1.058117 v -1.941883 l 8.795764,-8.022636 8.484236,-7.857364 v -2.532348 -3.467652 l -4.770098,4.487229 -3.786382,3.49962 -4.16284,3.829255 -4.560687,4.063896 v -1.733 -1.267 l 8.298465,-7.612906 8.981542,-8.267094 v -2.172347 -3.827653 l -4.848442,4.657356 -3.374919,3.229762 -3.935089,3.576854 -5.121557,4.416028 v -1.473 -1.527 l 8.546787,-7.696672 8.733212,-8.183328 v -1.274826 -4.725174 l -3.699244,3.569289 -3.981812,3.711566 -4.310287,3.955223 -5.288656,4.643922 v -0.813 -2.187 l 8.26952,-7.428635 9.010479,-8.451365 v -0.914825 -5.085175 l -4.210258,3.928093 -3.787547,3.646839 -4.380012,4.053043 -4.902182,4.252025 v -1.153 -1.847 l 7.918907,-7.041699 9.361092,-8.838301 v -0.554825 -5.445175 l -3.56376,3.368077 -4.334584,4.193876 -3.932436,3.580603 -5.449219,4.737444 v -1.193 -1.807 L 80.76324,41.6464 90.000006,33.020001 v -0.194824 l 8e-6,-2.805176 h -3.14 l -5.504311,5.220337 -3.584322,3.307083 -5.051367,4.35258 -6e-6,-0.757 v -2.243 l 6.190014,-5.408815 4.949992,-4.471185 h 2.163478 l 5.896515,5e-6 V 44.900005 59.780004 H 114.96001 138 v 19.68 19.679999 h -9.6 -9.59999 V 104.9 v 5.76 h 2.87999 2.88 v 0.96 0.96 h 4.8 4.8 v 44.15999 44.16 h -19.67999 -19.68 z m -9.401132,-38.34679 4.601136,-4.37321 v -2.61224 -3.38776 l -7.780302,7.71185 -7.601698,7.40815 h 2.476075 3.523925 z m 4.601132,1.68719 v -3.0604 l -2.88,2.76 -2.879999,2.75922 -0.621632,0.60078 h 0.621632 2.879999 2.88 z M 72.720011,32.320001 v -1.42 l 0.833408,-0.460652 0.751595,-0.419343 h 1.828 1.727 l -0.719783,0.554181 -0.703297,0.54539 -0.871246,0.671312 -0.957737,0.708637 -0.867111,0.658779 -1.020829,0.741696 z"
     style="fill:#000000;stroke-width:0.95999998" />
</svg>
