<?xml version="1.0" encoding="UTF-8" standalone="no"?>
<svg
   xmlns:dc="http://purl.org/dc/elements/1.1/"
   xmlns:cc="http://creativecommons.org/ns#"
   xmlns:rdf="http://www.w3.org/1999/02/22-rdf-syntax-ns#"
   xmlns:svg="http://www.w3.org/2000/svg"
   xmlns="http://www.w3.org/2000/svg"
   xmlns:sodipodi="http://sodipodi.sourceforge.net/DTD/sodipodi-0.dtd"
   xmlns:inkscape="http://www.inkscape.org/namespaces/inkscape"
   viewBox="0 0 230.39999 230.39999"
   height="230.39999"
   width="230.39999"
   id="svg6043"
   version="1.1"
   sodipodi:docname="MX-Neu.svg"
   inkscape:version="0.92.3 (2405546, 2018-03-11)">
  <sodipodi:namedview
     pagecolor="#ffffff"
     bordercolor="#666666"
     borderopacity="1"
     objecttolerance="10"
     gridtolerance="10"
     guidetolerance="10"
     inkscape:pageopacity="0"
     inkscape:pageshadow="2"
     inkscape:window-width="1680"
     inkscape:window-height="988"
     id="namedview273"
     showgrid="false"
     showguides="true"
     inkscape:guide-bbox="true"
     inkscape:zoom="2.8284271"
     inkscape:cx="74.837943"
     inkscape:cy="113.92093"
     inkscape:window-x="-8"
     inkscape:window-y="-8"
     inkscape:window-maximized="1"
     inkscape:current-layer="svg6043" />
  <metadata
     id="metadata6049">
    <rdf:RDF>
      <cc:Work
         rdf:about="">
        <dc:format>image/svg+xml</dc:format>
        <dc:type
           rdf:resource="http://purl.org/dc/dcmitype/StillImage" />
        <dc:title></dc:title>
      </cc:Work>
    </rdf:RDF>
  </metadata>
  <defs
     id="defs6047" />
  <path
     id="path6579"
     d="m 167.52054,28.196503 0.0158,-13.484375 2.10423,-0.01645 2.10423,-0.01645 0.0356,0.1727 c 0.0956,0.464049 0.5409,4.184635 0.75749,6.32895 0.20821,2.061252 0.91295,7.697479 1.06281,8.5 0.0867,0.464062 0.28369,1.551984 0.43783,2.417602 0.20632,1.158639 0.33679,1.719257 0.49454,2.125 0.11785,0.303132 0.21599,0.523023 0.21808,0.488648 0.002,-0.03437 0.19948,-1.004688 0.43865,-2.15625 0.39326,-1.89344 0.48036,-2.458495 0.91048,-5.90625 0.26159,-2.096875 0.64954,-5.640625 0.86211,-7.875 l 0.38648,-4.0625 h 2.28125 2.28125 l 0.0158,13.484375 0.0158,13.484375 h -1.4396 c -1.09748,0 -1.4452,-0.01857 -1.46312,-0.07813 -0.0129,-0.04297 -0.0547,-3.214063 -0.0927,-7.046875 -0.0381,-3.832813 -0.0881,-8.135938 -0.11115,-9.5625 l -0.0419,-2.59375 -0.67508,4.03125 c -0.59074,3.527596 -0.76108,4.729593 -1.36338,9.620797 -0.37856,3.07425 -0.6883,5.598469 -0.6883,5.609375 0,0.01091 -0.62944,0.01983 -1.39875,0.01983 h -1.39876 l -0.0436,-0.734375 c -0.0707,-1.192338 -0.30718,-2.930971 -1.13258,-8.328125 -0.29177,-1.907813 -0.71519,-4.692188 -0.94094,-6.1875 -0.40834,-2.704843 -0.4439,-2.9152 -0.48477,-2.868321 -0.0118,0.01351 -0.0407,2.021446 -0.0642,4.462071 -0.0235,2.440625 -0.0687,6.29375 -0.1004,8.5625 -0.0317,2.26875 -0.0584,4.342968 -0.0593,4.609375 l -0.002,0.484375 h -1.46889 -1.46889 z"
     style="fill:#000000;stroke-width:0.0625"
     inkscape:connector-curvature="0" />
  <path
     id="path6583"
     d="m 185.77054,28.196503 0.0158,-13.484375 h 1.43472 1.43472 l 0.003,13.484374 0.003,13.484374 h -1.45326 l -1.45327,2e-6 z"
     style="fill:#000000;stroke-width:0.0625"
     inkscape:connector-curvature="0" />
  <path
     id="path6585"
     d="m 202.8488,41.743378 c -0.0687,-0.02954 -0.60786,-0.05569 -1.19802,-0.05811 l -1.07303,-0.0044 -0.12662,-0.390625 c -0.0696,-0.214844 -0.54936,-1.740625 -1.06606,-3.390625 -0.93983,-3.001249 -1.14396,-3.623498 -1.63001,-4.96875 -0.14282,-0.395313 -0.41042,-1.140625 -0.59465,-1.65625 -0.18424,-0.515625 -0.44668,-1.246875 -0.58321,-1.625 -0.13653,-0.378125 -0.63158,-1.754986 -1.10009,-3.059691 -0.46852,-1.304705 -0.86484,-2.385174 -0.8807,-2.401042 -0.0159,-0.01587 -0.0291,0.657868 -0.0294,1.497191 -3e-4,0.839323 -0.0148,2.932292 -0.0322,4.651042 -0.0174,1.71875 -0.0487,4.974219 -0.0695,7.234375 l -0.0378,4.109375 h -1.46137 -1.46138 l 0.0158,-13.484375 0.0158,-13.484375 h 1.37212 1.37211 l 0.17867,0.5625 c 0.0983,0.309375 0.72511,2.22542 1.39298,4.257878 l 1.21431,3.695377 1.49441,3.492123 c 1.61465,3.773114 1.9889,4.601319 2.34055,5.179622 l 0.22803,0.375 0.0159,-8.78125 0.0159,-8.78125 h 1.4375 1.4375 l -0.003,1.28125 c -0.002,0.704687 -0.009,6.797819 -0.0156,13.540293 l -0.0128,12.259043 -0.23437,-0.05443 c -0.31876,-0.07402 -0.70313,-0.07124 -0.70313,0.0051 0,0.07336 -0.048,0.07336 -0.21875,0 z"
     style="fill:#000000;stroke-width:0.0625"
     inkscape:connector-curvature="0" />
  <path
     id="path6587"
     d="m 75.27,41.484284 c 0.0159,-0.117628 -0.0253,-3.800698 0,-8.175922 v -7.954951 l 44.28347,-0.04454 44.23653,-0.04454 -1.7e-4,2.342639 c -0.002,1.058769 0.0258,2.002679 1.7e-4,3.053024 h -14.47298 c -7.83826,0 -14.82596,-0.07644 -15.52872,0 h -1.3773 l 1.71444,2.294818 c 0.88818,1.166726 2.67499,3.553212 3.97069,5.303301 2.1853,2.951649 2.22781,3.269998 1.96096,3.431881 -0.21717,0.06323 -14.85547,-0.0097 -32.52956,0 -25.55776,0.01402 -32.19013,0.17575 -32.25753,0 z"
     style="fill:#000000;stroke-width:0.17677669"
     inkscape:connector-curvature="0"
     sodipodi:nodetypes="cccccccscccccscc" />
  <path
     id="path6622"
     d="M 75,129.89999 V 44.400006 h 65 65 v 2.5 2.5 H 184.5 164 v 82.999984 83 H 119.50001 75 Z m 21.23542,-4.84374 c 0.993502,-0.59008 1.941772,-1.51536 2.26418,-2.625 0.520989,-1.79309 0.30519,-4.04885 -0.81604,-5.54198 -0.957628,-1.27527 -2.758403,-1.90959 -4.3512,-1.98928 -1.647503,-0.0824 -3.473834,0.47664 -4.68355,1.59809 -1.024082,0.94936 -1.637782,2.4548 -1.64881,3.85119 -0.0111,1.40546 0.617853,2.89466 1.59809,3.90192 0.948722,0.97487 2.379724,1.51091 3.73303,1.6488 1.324618,0.13497 2.759517,-0.16381 3.9043,-0.84374 z"
     style="fill:#000000;stroke-width:0.5"
     inkscape:connector-curvature="0"
     sodipodi:nodetypes="cccccccccccccaaaaaaaaa" />
</svg>
